<?xml version="1.0" encoding="UTF-8"?>
<svg version="1.1" xmlns="http://www.w3.org/2000/svg" width="1005" height="250">
<path d="M0 0 C0.86056 -0.0065712 1.72112 -0.0131424 2.60775757 -0.01991272 C5.46954436 -0.03969227 8.33127816 -0.0513278 11.19311523 -0.0612793 C12.17402571 -0.06535482 13.15493618 -0.06943035 14.16557121 -0.07362938 C19.37226019 -0.0945246 24.57892265 -0.10880299 29.78564453 -0.11816406 C35.12456145 -0.12914659 40.46305208 -0.16344065 45.8018198 -0.20333576 C49.93642355 -0.2297132 54.07092983 -0.23787518 58.20561028 -0.24144554 C60.17046883 -0.24626889 62.13532431 -0.25775877 64.10009956 -0.27648354 C85.44284867 -0.4669958 105.49933532 2.57137052 121.62597656 17.84716797 C126.22872718 22.46558752 129.70516283 27.40008809 132.68920898 33.17700195 C133.12104492 33.98008789 133.55288086 34.78317383 133.99780273 35.6105957 C138.7709771 46.19746341 138.46032617 60.43369326 134.75170898 71.30200195 C129.27005838 83.36473026 118.76319961 91.9309097 106.78686523 97.0871582 C99.51614931 99.64520327 91.85386385 100.67317003 84.26733398 101.8840332 C68.81347787 104.38846645 57.22464339 109.22400034 47.68920898 122.17700195 C41.98492248 130.63592254 38.09128986 139.71981083 34.18920898 149.11450195 C19.26943603 185.0188718 19.26943603 185.0188718 2.68920898 192.17700195 C-2.01601657 193.74541047 -5.83727918 193.72595734 -10.49829102 191.98950195 C-14.53672445 189.38695596 -16.7911888 186.73580859 -18.31079102 182.17700195 C-18.40944271 179.90792625 -18.44583 177.63600465 -18.45123291 175.36479187 C-18.45420403 174.66817454 -18.45717515 173.9715572 -18.46023631 173.25383025 C-18.46892443 170.91399974 -18.47043165 168.57422038 -18.47192383 166.234375 C-18.47655192 164.55895885 -18.48157657 162.88354375 -18.48696899 161.20812988 C-18.50009582 156.65226524 -18.5065385 152.09641534 -18.51097965 147.54053473 C-18.51390991 144.6946472 -18.51801463 141.8487637 -18.52248383 139.00287819 C-18.53615948 130.10002781 -18.54582581 121.19718664 -18.54968572 112.29432648 C-18.55416683 102.0149165 -18.5717169 91.73563947 -18.60068631 81.45626992 C-18.62229767 73.51222959 -18.63238971 65.56822667 -18.63372684 57.62415725 C-18.63477525 52.87878264 -18.64069086 48.13353299 -18.65854645 43.38818932 C-18.6750177 38.92386463 -18.67718725 34.45975897 -18.66840744 29.99541473 C-18.66763656 28.35795569 -18.67198654 26.72048492 -18.68186569 25.0830555 C-18.69457451 22.84516393 -18.68871478 20.60804935 -18.67828369 18.37016296 C-18.67975025 17.11857738 -18.68121681 15.86699179 -18.68272781 14.57747936 C-18.12799238 9.50574315 -16.52483409 6.2726018 -12.74829102 2.86450195 C-8.45951672 -0.10464949 -5.08573015 0.01673773 0 0 Z " fill="#3AAAF5" transform="translate(18.310791015625,-0.177001953125)"/>
<path d="M0 0 C2.52361521 1.95897071 4.93225738 3.99122057 7.31640625 6.1171875 C8.02667969 6.74496094 8.73695313 7.37273437 9.46875 8.01953125 C22.52426988 20.27317659 29.10517208 36.86444574 30.6015625 54.47265625 C31.14463778 73.85808238 24.25294764 89.75636571 11.19140625 103.7421875 C-14.6721306 128.54101615 -52.3490268 131.69101152 -86.25805664 131.45336914 C-89.90598184 131.42945883 -93.55318636 131.4328793 -97.20117188 131.43945312 C-99.56380637 131.43388344 -101.92643786 131.42677806 -104.2890625 131.41796875 C-105.89251778 131.41933586 -105.89251778 131.41933586 -107.52836609 131.42073059 C-127.39895431 131.23612332 -127.39895431 131.23612332 -134.68359375 126.1171875 C-135.74609375 124.2421875 -135.74609375 124.2421875 -135.68359375 122.1171875 C-132.82747521 115.07209511 -125.50462462 110.64345505 -119.47436523 106.46704102 C-110.52213768 100.2484801 -104.59975967 94.33319451 -99.49609375 84.6171875 C-99.17463379 84.0195459 -98.85317383 83.4219043 -98.52197266 82.80615234 C-91.8212515 69.26258402 -90.44358482 53.21932212 -88.32910156 38.4543457 C-83.5814181 5.58151551 -83.5814181 5.58151551 -71.62109375 -4.7578125 C-51.25883774 -18.92431627 -19.2549024 -13.50926194 0 0 Z " fill="#3AAAF5" transform="translate(158.68359375,118.8828125)"/>
<path d="M0 0 C0.99 0.99 1.98 1.98 3 3 C3.33 -0.63 3.66 -4.26 4 -8 C14.89 -8 25.78 -8 37 -8 C37.06790869 8.07346338 37.12309282 24.14680295 37.15543652 40.22037029 C37.17085821 47.68480784 37.191857 55.14914945 37.22631836 62.61352539 C37.25636554 69.12492769 37.27560908 75.63626046 37.28226548 82.14773017 C37.28615202 85.59058074 37.29518579 89.03323251 37.31719017 92.47601891 C37.33912243 96.33398363 37.34196027 100.19154303 37.34057617 104.04956055 C37.351362 105.17166428 37.36214783 106.29376801 37.3732605 107.44987488 C37.31348218 122.954575 32.98433736 137.63232908 22.125 149.09765625 C13.74368853 156.60077883 4.78531282 161.68860309 -6 165 C-7.18335938 165.36609375 -8.36671875 165.7321875 -9.5859375 166.109375 C-15.26136179 167.48144817 -21.00548023 167.32915812 -26.8125 167.3125 C-28.48022461 167.33666992 -28.48022461 167.33666992 -30.18164062 167.36132812 C-37.58321442 167.36565906 -43.98484811 166.33767942 -51 164 C-51.87712646 163.71012207 -52.75425293 163.42024414 -53.65795898 163.12158203 C-68.28877135 158.06721821 -78.33175693 147.14083152 -85.06640625 133.6015625 C-86 131 -86 131 -85 128 C-82.97802734 126.68139648 -82.97802734 126.68139648 -80.3359375 125.37109375 C-78.89927734 124.65469727 -78.89927734 124.65469727 -77.43359375 123.92382812 C-76.42425781 123.43333984 -75.41492188 122.94285156 -74.375 122.4375 C-73.38886719 121.94314453 -72.40273438 121.44878906 -71.38671875 120.93945312 C-66.32158351 118.44069815 -61.50140341 116.30215291 -56 115 C-55.63648438 115.73605469 -55.27296875 116.47210938 -54.8984375 117.23046875 C-50.59271445 125.58798759 -46.84375417 130.23670035 -38 134 C-27.48515252 136.51863181 -17.49001933 135.37566618 -8.12109375 129.90234375 C-3.00687052 126.12115114 -0.19419292 120.13380908 1 114 C1.22117559 111.5861824 1.40572242 109.16885403 1.5625 106.75 C1.68818359 104.85507813 1.68818359 104.85507813 1.81640625 102.921875 C1.87699219 101.95765625 1.93757813 100.9934375 2 100 C1.31035156 100.47050781 0.62070312 100.94101563 -0.08984375 101.42578125 C-13.88028869 110.56266041 -28.86545784 113.2260858 -45.2109375 110.3515625 C-61.43677195 106.9428719 -75.64226433 98.47245616 -84.9375 84.5 C-94.38260307 68.45688235 -96.78760184 50.10986602 -92.4375 32 C-87.60981099 16.51116443 -77.69903193 4.37913929 -63.46118164 -3.41699219 C-43.34166664 -13.65965437 -18.5621491 -13.43784925 0 0 Z M-53.453125 33.875 C-58.38850288 40.65491305 -58.81903992 47.78746454 -58 56 C-55.92702752 64.98288075 -50.70561607 71.18043571 -43 76 C-35.58817904 80.28345497 -26.32968208 80.22992663 -18.15625 78.34375 C-11.39855199 75.92432726 -5.32115766 71.98297198 -1.65234375 65.6875 C2.04072891 57.63951371 3.42691525 49.92518385 0.75 41.3125 C-2.20553352 33.43107729 -6.98615699 27.45761745 -14.58203125 23.734375 C-29.37492789 17.85859508 -43.24098539 21.5842833 -53.453125 33.875 Z " fill="#323232" transform="translate(478,83)"/>
<path d="M0 0 C11.55 0 23.1 0 35 0 C35.33 17.82 35.66 35.64 36 54 C38.31 52.02 40.62 50.04 43 48 C45.4765625 46.57421875 45.4765625 46.57421875 47.625 45.6875 C48.33914063 45.38199219 49.05328125 45.07648438 49.7890625 44.76171875 C61.99974 40.55485989 77.80769571 41.67961698 89.34375 47.1015625 C101.23667042 53.24623805 107.87665105 61.83387897 112.23828125 74.421875 C113.84895891 79.8733994 114.13883453 84.97969405 114.11352539 90.64575195 C114.11367142 91.5047963 114.11381744 92.36384064 114.1139679 93.24891663 C114.11327312 96.07873082 114.10550111 98.9084786 114.09765625 101.73828125 C114.09579052 103.70411646 114.09436735 105.66995213 114.09336853 107.63578796 C114.08955553 112.80279836 114.07973562 117.96978052 114.06866455 123.13677979 C114.05842427 128.41214618 114.0538653 133.68751715 114.04882812 138.96289062 C114.03811226 149.30860813 114.02052531 159.6542973 114 170 C102.45 170 90.9 170 79 170 C78.94392578 161.69328125 78.94392578 161.69328125 78.88671875 153.21875 C78.85642576 149.70049032 78.82526923 146.18228041 78.79101562 142.6640625 C78.73678553 137.08563813 78.68567186 131.50731222 78.65356445 125.92871094 C78.62746415 121.42869908 78.58701453 116.92901973 78.53681374 112.42921448 C78.5201904 110.71655936 78.50864798 109.00384678 78.50238609 107.29112244 C78.49269533 104.88318415 78.46457835 102.47608788 78.43237305 100.06835938 C78.43452568 99.01746628 78.43452568 99.01746628 78.4367218 97.94534302 C78.31510831 91.47286812 76.79818467 86.12942922 72.625 81.1875 C66.87912239 76.39926866 61.93285104 74.5498834 54.5078125 74.66015625 C49.08700629 75.39475148 44.11845239 77.82822272 40.29296875 81.75 C36.12940652 87.31741463 35.84815113 91.97640687 35.79467773 98.70605469 C35.78477814 99.47717087 35.77487854 100.24828705 35.76467896 101.04277039 C35.73314922 103.58577427 35.70834032 106.12879682 35.68359375 108.671875 C35.66301686 110.43736246 35.64202019 112.20284507 35.62062073 113.96832275 C35.56547601 118.61086091 35.51603325 123.25344298 35.46777344 127.89605713 C35.40866146 133.4686716 35.34247535 139.04120599 35.27747345 144.61375427 C35.17955955 153.07578719 35.09063811 161.53787192 35 170 C23.45 170 11.9 170 0 170 C0 113.9 0 57.8 0 0 Z " fill="#323232" transform="translate(530,30)"/>
<path d="M0 0 C13.6609947 10.93913195 22.68994159 23.83369521 25.7265625 41.39453125 C26.51249598 48.88335454 26.51254379 56.60534146 25 64 C22.971151 66.028849 18.77933301 65.1852831 15.99194336 65.20532227 C15.15299026 65.21522186 14.31403717 65.22512146 13.44966125 65.23532104 C10.6630846 65.26703185 7.87649087 65.29173114 5.08984375 65.31640625 C3.16312708 65.33696752 1.23641501 65.35796376 -0.69029236 65.37937927 C-5.771823 65.43468542 -10.85339492 65.48405688 -15.93499756 65.53222656 C-21.1162078 65.58237938 -26.2973578 65.63809783 -31.47851562 65.69335938 C-41.65229233 65.80104537 -51.82612125 65.902467 -62 66 C-61.54934159 67.42349028 -61.09236535 68.84498121 -60.6328125 70.265625 C-60.37902832 71.05743164 -60.12524414 71.84923828 -59.86376953 72.66503906 C-57.4863362 79.09176953 -53.68079846 82.93774687 -47.58203125 85.9921875 C-39.07329841 89.31329654 -30.72062019 89.73291877 -22 87 C-19.49294841 85.8312648 -17.33458622 84.5077536 -15 83 C-14.01 82.67 -13.02 82.34 -12 82 C-10.83333333 80.08333333 -10.83333333 80.08333333 -10 78 C-9.67 77.34 -9.34 76.68 -9 76 C-2.90421263 76.98308024 2.23309492 79.77381638 7.75 82.4375 C8.81605469 82.94087891 9.88210938 83.44425781 10.98046875 83.96289062 C11.99238281 84.44822266 13.00429688 84.93355469 14.046875 85.43359375 C15.43664551 86.09959595 15.43664551 86.09959595 16.85449219 86.77905273 C19 88 19 88 20 90 C14.53697303 102.56496203 4.33151449 110.70478724 -8 116 C-26.83036362 122.14869016 -46.90086463 121.68633087 -65.05859375 113.5625 C-80.40052536 105.41273553 -90.65053419 92.65545503 -96.25390625 76.3515625 C-101.66187041 58.39093836 -100.07092762 39.80905129 -92.4375 22.75 C-83.99884753 7.08734958 -69.39280791 -3.71599831 -52.5625 -8.8125 C-34.90467065 -12.80271079 -14.99498382 -10.51172306 0 0 Z M-55.390625 25.11328125 C-58.49296444 28.75024715 -62 34.09016784 -62 39 C-45.17 39 -28.34 39 -11 39 C-14.25663366 27.74620275 -14.25663366 27.74620275 -22.5625 20.6875 C-33.53340162 15.30178466 -46.35829619 16.88889011 -55.390625 25.11328125 Z " fill="#323232" transform="translate(749,83)"/>
<path d="M0 0 C13.28868482 9.83362677 20.96293211 24.23567831 24.2890625 40.19140625 C24.67513596 44.01641755 24.72062313 47.78698503 24.6640625 51.62890625 C24.65318604 52.63880615 24.64230957 53.64870605 24.63110352 54.68920898 C24.2651593 71.80297016 18.22157255 86.43316688 6.1171875 98.56640625 C-8.58523664 112.21285517 -25.89989643 117.58229567 -45.734375 117.40625 C-60.79642195 116.59248518 -73.84760035 111.32361542 -85.7109375 102.19140625 C-86.7421875 101.44890625 -87.7734375 100.70640625 -88.8359375 99.94140625 C-101.11100237 88.20003985 -107.77400071 72.56963479 -108.94921875 55.7890625 C-109.3335924 37.48073849 -104.01206075 19.96668197 -91.25390625 6.39550781 C-66.40848643 -18.33271663 -28.22943186 -18.83318005 0 0 Z M-66.32421875 30.12890625 C-72.14807171 38.7908622 -73.84840816 48.95208029 -72.25 59.125 C-70.26577999 68.28742771 -66.99018967 75.21405242 -59.1484375 80.62890625 C-51.20507687 85.59881638 -43.87105961 85.94915457 -34.7109375 85.19140625 C-27.09299258 83.35031102 -20.26200223 78.29969659 -16.13671875 71.65625 C-11.17836202 62.00947573 -10.0266081 51.53089345 -12.46484375 40.90625 C-15.88953105 31.14253365 -20.71571609 25.34123845 -29.7109375 20.19140625 C-42.90129712 14.7473851 -57.50211616 19.3849283 -66.32421875 30.12890625 Z " fill="#323232" transform="translate(357.7109375,85.80859375)"/>
<path d="M0 0 C7.63280112 5.9695725 12.99265929 14.45639906 15 24 C15.09001981 26.9746173 15.12616703 29.92512201 15.11352539 32.89941406 C15.11367142 33.79732666 15.11381744 34.69523926 15.1139679 35.62036133 C15.11327176 38.58547387 15.10549329 41.55052344 15.09765625 44.515625 C15.09579101 46.57257045 15.09436761 48.62951635 15.09336853 50.6864624 C15.0895517 56.09844185 15.07972851 61.51039444 15.06866455 66.92236328 C15.05843252 72.44563432 15.05386707 77.96890971 15.04882812 83.4921875 C15.03810551 94.3281387 15.02051543 105.16406291 15 116 C4.44 116 -6.12 116 -17 116 C-17.495 111.545 -17.495 111.545 -18 107 C-18.52207031 107.45890625 -19.04414062 107.9178125 -19.58203125 108.390625 C-31.55514709 118.37171631 -44.90656633 120.07021537 -60.08984375 118.7265625 C-73.51621115 116.85639831 -84.11631827 111.61674983 -92.66015625 100.921875 C-98.11634436 92.84098998 -98.98813642 84.04379158 -97.375 74.5625 C-95.2374564 65.93810532 -89.26719472 58.90003032 -82 54 C-69.81163889 47.01013296 -55.5746824 44.88392279 -42 42 C-40.07914972 41.57938968 -38.15855822 41.15759504 -36.23828125 40.734375 C-34.53409944 40.36345463 -32.82968733 39.99359012 -31.125 39.625 C-29.96738159 39.37339111 -29.96738159 39.37339111 -28.78637695 39.11669922 C-25.41740615 38.40860809 -22.46230012 38 -19 38 C-20.86430036 28.78951731 -20.86430036 28.78951731 -27 22 C-32.85518317 19.14049194 -39.46025592 19.04956073 -45.69140625 20.72265625 C-54.05498352 23.80135012 -59.12388737 29.06633969 -63 37 C-69.83588485 34.94673056 -76.12617523 32.19631331 -82.5 29 C-83.40492188 28.56171875 -84.30984375 28.1234375 -85.2421875 27.671875 C-86.10070312 27.24390625 -86.95921875 26.8159375 -87.84375 26.375 C-89.00680664 25.79878906 -89.00680664 25.79878906 -90.19335938 25.2109375 C-92 24 -92 24 -93 21 C-88.3504177 8.95335494 -78.19041127 -0.14758738 -66.75 -5.6875 C-44.88271891 -14.89790372 -19.63870955 -13.90123772 0 0 Z M-34.01098633 65.77099609 C-35.4519624 66.08812397 -36.89402193 66.40037162 -38.3371582 66.70751953 C-40.42926114 67.15299545 -42.51744916 67.61392983 -44.60546875 68.078125 C-45.85481201 68.35043945 -47.10415527 68.62275391 -48.39135742 68.90332031 C-53.58539702 70.48180796 -57.81702926 72.29947956 -61 76.875 C-62.17144286 80.53575892 -62.16547978 82.34816335 -61 86 C-58.46508719 89.98343442 -56.43103228 91.54233873 -52 93 C-43.44434781 94.13023977 -36.17251339 92.34925197 -28.9609375 87.6796875 C-23.52594267 83.44732982 -20.53017361 78.65729928 -19.5390625 71.8203125 C-19.28288885 68.87777733 -19.09838865 65.95165938 -19 63 C-24.01653286 63 -29.11507451 64.68621672 -34.01098633 65.77099609 Z " fill="#323232" transform="translate(990,84)"/>
<path d="M0 0 C5.65519415 -0.37341286 11.30311579 -0.64401471 16.96777344 -0.82397461 C18.88929216 -0.89900872 20.80996542 -1.00109493 22.72851562 -1.1315918 C38.18866599 -2.156108 38.18866599 -2.156108 42.79898071 1.37969971 C45.96149948 4.89944339 48.0818255 8.90666423 50.09997559 13.16036987 C51.27372989 15.55949788 52.72745018 17.68840231 54.27734375 19.859375 C54.72787109 20.519375 55.17839844 21.179375 55.64257812 21.859375 C56.28356445 22.79523438 56.28356445 22.79523438 56.9375 23.75 C57.39189453 24.4203125 57.84628906 25.090625 58.31445312 25.78125 C58.97670898 26.74804688 58.97670898 26.74804688 59.65234375 27.734375 C60.03382568 28.29350586 60.41530762 28.85263672 60.80834961 29.42871094 C62.08184779 31.10792305 63.47938475 32.54385247 65 34 C65.30591064 33.53851563 65.61182129 33.07703125 65.92700195 32.6015625 C67.38746384 30.40012898 68.84999154 28.20007437 70.3125 26 C70.79267578 25.27554688 71.27285156 24.55109375 71.76757812 23.8046875 C72.84111517 22.19096303 73.93659469 20.59172046 75.0480957 19.00390625 C76.58804271 16.63398656 77.86657898 14.3466008 79.14526367 11.83984375 C84.95291541 1.14138961 84.95291541 1.14138961 90.21078491 -0.828125 C96.35999261 -1.97912955 102.48987664 -1.46357807 108.6875 -1 C110.56414796 -0.91961159 112.44112862 -0.84663026 114.31835938 -0.78125 C118.88721727 -0.60612397 123.43989789 -0.33106501 128 0 C127.31235902 2.97739227 126.52481507 4.98705783 124.734375 7.4765625 C124.02776733 8.46825439 124.02776733 8.46825439 123.30688477 9.47998047 C122.79311279 10.18783691 122.27934082 10.89569336 121.75 11.625 C121.2149585 12.37281738 120.67991699 13.12063477 120.12866211 13.89111328 C117.35819617 17.75663619 114.56265045 21.60395615 111.76953125 25.453125 C110.7003473 26.92695746 109.63133703 28.40091593 108.5625 29.875 C108.03060059 30.60823486 107.49870117 31.34146973 106.95068359 32.09692383 C102.84380864 37.78009408 98.83627962 43.52701291 94.875 49.3125 C94.33045166 50.1070459 93.78590332 50.9015918 93.22485352 51.72021484 C90.70406197 55.4203497 88.24437854 59.12264259 86 63 C91.54947767 71.10082651 97.12229978 79.18459982 102.73828125 87.23950195 C109.02756708 96.2605055 115.29032146 105.29897201 121.5 114.375 C122.15323242 115.32648926 122.80646484 116.27797852 123.47949219 117.25830078 C124.07407227 118.1295459 124.66865234 119.00079102 125.28125 119.8984375 C126.07112305 121.05351807 126.07112305 121.05351807 126.87695312 122.23193359 C128 124 128 124 128 125 C94.55420928 130.12950244 94.55420928 130.12950244 84.85998535 123.546875 C76.52557696 115.96414833 71.20744971 105.22275868 66.48242188 95.14282227 C65.30896781 92.19634284 65.30896781 92.19634284 64 91 C63.3387915 91.99443115 62.67758301 92.9888623 61.99633789 94.01342773 C59.55055987 97.69112233 57.10327149 101.36780972 54.65551758 105.04418945 C53.59488132 106.63766336 52.53465881 108.23141276 51.47485352 109.82543945 C49.95436704 112.1122113 48.43241146 114.39799906 46.91015625 116.68359375 C46.43409439 117.40026718 45.95803253 118.11694061 45.46754456 118.85533142 C42.11387171 123.88612829 42.11387171 123.88612829 41 125 C38.04294679 125.08868299 35.10934944 125.11520296 32.15234375 125.09765625 C30.82270348 125.09553383 30.82270348 125.09553383 29.46620178 125.09336853 C26.62326746 125.08775215 23.78041069 125.07519691 20.9375 125.0625 C19.01497509 125.05748711 17.09244896 125.05292384 15.16992188 125.04882812 C10.44658451 125.03777741 5.72330542 125.02050183 1 125 C2.2526782 121.60763799 3.67107535 118.78378804 5.765625 115.83984375 C6.31879395 115.05649658 6.87196289 114.27314941 7.44189453 113.46606445 C8.03856934 112.63163818 8.63524414 111.79721191 9.25 110.9375 C10.52358611 109.13812601 11.79701931 107.33864379 13.0703125 105.5390625 C13.72290039 104.6202832 14.37548828 103.70150391 15.04785156 102.75488281 C18.09453095 98.4553918 21.10833039 94.13307035 24.125 89.8125 C30.39020236 80.85628106 36.68864964 71.92374081 43 63 C39.08224849 56.48880734 34.84631583 50.35528614 30.25 44.3125 C25.71760549 38.34975426 21.37472886 32.29611498 17.16748047 26.10009766 C14.7078891 22.47980025 12.21982565 18.88472357 9.6796875 15.3203125 C8.85307617 14.1600354 8.85307617 14.1600354 8.00976562 12.97631836 C6.9411657 11.48018271 5.86966877 9.98611087 4.79492188 8.49438477 C4.31345703 7.81947998 3.83199219 7.1445752 3.3359375 6.44921875 C2.90845215 5.85455811 2.4809668 5.25989746 2.04052734 4.6472168 C1 3 1 3 0 0 Z " fill="#323232" transform="translate(768,75)"/>
<path d="M0 0 C11.55 0 23.1 0 35 0 C35 56.1 35 112.2 35 170 C23.45 170 11.9 170 0 170 C0 113.9 0 57.8 0 0 Z " fill="#323232" transform="translate(206,30)"/>
</svg>
