<?xml version="1.0" encoding="UTF-8"?>
<svg version="1.1" xmlns="http://www.w3.org/2000/svg" width="930" height="1233">
<path d="M0 0 C5.14490454 0.00231638 10.28980577 0.00255622 15.43471068 0.0014841 C16.17865673 0.00133087 16.92260277 0.00117764 17.68909264 0.00101976 C19.20245117 0.0006999 20.7158097 0.00037568 22.22916824 0.00004717 C36.29199219 -0.00277793 50.35480953 0.00043128 64.4176324 0.00584754 C76.35912966 0.01030535 88.30061717 0.00954223 100.24211425 0.00492878 C114.25645149 -0.0004833 128.27078299 -0.00249583 142.28512114 0.00054104 C143.79408059 0.00085944 145.30304005 0.00117381 146.8119995 0.0014841 C147.92436445 0.00171552 147.92436445 0.00171552 149.05920142 0.00195161 C154.16523813 0.00279769 159.271271 0.00137567 164.37730712 -0.00099545 C191.48326383 -0.01243185 218.58473748 0.01389704 245.6859619 0.58110065 C246.63014039 0.60051267 247.57431887 0.61992469 248.54710883 0.63992495 C258.88200443 0.85939394 269.20896439 1.19179242 279.53679198 1.63380451 C280.48884237 1.67446792 281.44089276 1.71513134 282.42179316 1.75702698 C289.61247112 2.07914424 296.7530609 2.58801711 303.90861815 3.38529987 C305.070708 3.51388385 306.23279784 3.64246784 307.43010253 3.77494831 C369.21499035 10.99374389 429.03810345 32.53565268 478.15861815 71.13529987 C479.14217284 71.90487018 480.12572753 72.67444049 481.1390869 73.46733112 C496.15088321 85.48976539 510.31567547 98.97937966 522.15861815 114.13529987 C523.15596587 115.38013009 524.15336492 116.62491918 525.15080565 117.86967487 C551.74008621 151.4195424 569.21184737 190.90309039 576.15861815 233.13529987 C576.35125243 234.24397419 576.35125243 234.24397419 576.54777831 235.37504596 C581.66662565 265.93778625 578.36876903 298.48951592 570.15861815 328.13529987 C569.85214354 329.25267536 569.85214354 329.25267536 569.53947753 330.39262409 C558.21754813 370.4417029 531.72151274 407.53443146 499.15861815 433.13529987 C498.19568846 433.91518268 497.23275878 434.69506549 496.2406494 435.49858112 C446.63144095 474.92186844 387.14309773 487.74164364 325.84318846 495.83793659 C271.87736816 502.9721792 222.39926303 513.66083826 180.15861815 550.13529987 C179.36713378 550.81592487 178.5756494 551.49654987 177.76018065 552.19779987 C166.64815403 561.9792602 156.21579054 572.41425325 147.15861815 584.13529987 C146.16555064 585.38823868 145.17202908 586.6408177 144.1781494 587.89311237 C109.49737228 631.98499129 88.11211325 684.1591899 67.09489745 735.66410846 C20.23316994 850.42939658 20.23316994 850.42939658 -20.84138185 896.13529987 C-21.35475099 896.71038288 -21.86812013 897.28546588 -22.39704591 897.87797565 C-28.20924817 904.36856808 -34.06248178 910.63609012 -40.84138185 916.13529987 C-41.94052203 917.05826043 -43.03946117 917.98146045 -44.13825685 918.90483112 C-67.49745084 938.30531183 -93.84885219 951.00288427 -124.84138185 949.13529987 C-141.21366186 947.47429007 -156.0433877 941.64542604 -167.52888185 929.51029987 C-179.32561395 914.89138306 -185.02730013 896.66953236 -186.84138185 878.13529987 C-186.92249304 877.32176989 -187.00360422 876.50823992 -187.08717333 875.67005752 C-187.80537863 867.89428174 -187.9840491 860.19535953 -187.97280961 852.38969345 C-187.97446326 851.03587404 -187.97655135 849.68205512 -187.97902972 848.32823697 C-187.98455443 844.6251168 -187.98393172 840.92201994 -187.98225212 837.21889699 C-187.98151723 833.18351457 -187.98655282 829.14813853 -187.99082714 825.11275888 C-187.99838629 817.11682982 -188.00059914 809.12090743 -188.0011562 801.12497517 C-188.00207189 791.54422267 -188.00874545 781.96347632 -188.01550302 772.38272647 C-188.03154324 749.23113821 -188.03746379 726.07955062 -188.04225177 702.92795779 C-188.04458942 691.97233886 -188.04819223 681.01672045 -188.05194715 670.06110193 C-188.06478009 632.54596112 -188.07550013 595.0308206 -188.07894975 557.51567764 C-188.07917138 555.16189567 -188.07939316 552.8081137 -188.0796151 550.45433174 C-188.07983574 548.09493473 -188.08005622 545.73553773 -188.08027655 543.37614072 C-188.0807191 538.64294703 -188.08116621 533.90975333 -188.08161622 529.17655963 C-188.08178031 527.41623189 -188.08178031 527.41623189 -188.08194771 525.62034198 C-188.08557858 487.56540795 -188.10150108 449.51049298 -188.12480659 411.45556625 C-188.149412 371.20435608 -188.16312289 330.95315679 -188.16431767 290.70193888 C-188.16448912 286.28206212 -188.16470454 281.86218537 -188.1649521 277.44230861 C-188.16500787 276.35404192 -188.16506364 275.26577524 -188.1651211 274.14453077 C-188.16627082 256.64575508 -188.17728598 239.14699896 -188.19183915 221.64822988 C-188.20621744 204.05538045 -188.20943358 186.46255609 -188.20139918 168.8697024 C-188.19694946 158.42455082 -188.20077723 147.97948023 -188.21663768 137.53433932 C-188.22641302 130.54807024 -188.22518512 123.56185767 -188.21520146 116.57558906 C-188.20982789 112.60110058 -188.20903923 108.62676723 -188.22171018 104.65229183 C-188.30922477 75.35701047 -187.57014189 43.81119313 -166.25666505 21.2165987 C-152.80444812 7.85594016 -136.10062008 3.33099852 -117.84138185 2.13529987 C-117.07906251 2.08422077 -116.31674318 2.03314167 -115.53132325 1.98051471 C-108.97249732 1.56895355 -102.40893987 1.35505074 -95.84138185 1.13529987 C-93.98680108 1.07258836 -93.98680108 1.07258836 -92.09475404 1.00860996 C-61.40091193 -0.00076569 -30.70690188 -0.01421443 0 0 Z " fill="#3AAAF5" transform="translate(187.84138184785843,-0.13529986888170242)"/>
<path d="M0 0 C1.44514335 0.64100648 2.89044987 1.28164526 4.3359375 1.921875 C27.08437662 12.15217759 48.35756514 25.67426542 68 41 C69.21816406 41.94552734 69.21816406 41.94552734 70.4609375 42.91015625 C81.17937118 51.35655949 91.51726666 60.17792431 101 70 C103.5795097 72.59639683 106.17614944 75.1717211 108.796875 77.7265625 C115.35829891 84.14337898 121.30383002 90.79123363 127 98 C127.9077783 99.09702417 128.81806097 100.19197946 129.73046875 101.28515625 C173.65300836 154.31161367 202.91493149 226.51951352 203.203125 295.75390625 C203.20882507 296.8530687 203.21452515 297.95223114 203.22039795 299.08470154 C203.2297917 301.40500953 203.23635936 303.72533053 203.24023438 306.0456543 C203.24983032 309.50139472 203.28086302 312.95651076 203.3125 316.41210938 C203.41120777 336.99162301 201.67153928 357.36059814 197.3125 377.5 C197.05831299 378.69375244 196.80412598 379.88750488 196.54223633 381.11743164 C186.17292323 428.14091647 164.65946939 470.99328371 134 508 C132.78376953 509.49466797 132.78376953 509.49466797 131.54296875 511.01953125 C125.32635922 518.54201977 118.64635776 525.53481531 111.75 532.4375 C110.49074707 533.69796143 110.49074707 533.69796143 109.20605469 534.98388672 C104.29418005 539.85209593 99.2803409 544.5341653 94 549 C93.39542969 549.51135498 92.79085937 550.02270996 92.16796875 550.54956055 C23.72813601 607.84952266 -61.83997833 640.81727665 -386.31377411 674.25713813 C-391.13792195 674.24956742 -395.9619879 674.2523494 -400.78613281 674.26074219 C-432.23589919 674.31397575 -463.61307793 674.18695267 -495 672 C-496.12660034 671.92203186 -497.25320068 671.84406372 -498.41394043 671.76373291 C-504.4941209 671.32741423 -510.56004891 670.79844487 -516.625 670.1875 C-517.90422333 670.06202789 -517.90422333 670.06202789 -519.20928955 669.934021 C-590.03595612 662.93158214 -590.03595612 662.93158214 -606.609375 643.015625 C-609.94041563 638.18748745 -609.52329075 632.62727156 -609 627 C-604.34128166 609.2553276 -586.94229586 596.5049413 -573 586 C-572.34515625 585.50081055 -571.6903125 585.00162109 -571.015625 584.48730469 C-558.44385877 574.92052647 -545.38811253 566.10119038 -532.29359436 557.27542114 C-513.09817233 544.37493667 -513.09817233 544.37493667 -495 530 C-494.22011719 529.33097656 -493.44023437 528.66195312 -492.63671875 527.97265625 C-480.71662289 517.49623812 -469.68827247 506.35571313 -460.21142578 493.6171875 C-459.07760919 492.10360404 -457.91288312 490.61331365 -456.74609375 489.125 C-400.48244591 416.65661638 -390.25274198 320.92641503 -378.27916718 233.04830933 C-356.24816035 71.40209608 -356.24816035 71.40209608 -308 21 C-306.88625 19.79150391 -306.88625 19.79150391 -305.75 18.55859375 C-243.63999778 -46.71820135 -123.44820961 -40.60707314 0 0 Z " fill="#3AAAF5" transform="translate(727,559)"/>
</svg>
